<svg width="158.8246564331384" height="131.1617896614167" xmlns="http://www.w3.org/2000/svg"><rect x="0" y="0" width="158.8246564331384" height="131.1617896614167" id="background" fill="#FFFFFF"/><g id="map" transform="translate(79.4123282165692 65.58089483070835)"><g id="waterbody"><polygon points="-74.0744971324768,66.55926456150704 -69.63653392519029,64.00063809010246 -67.00257835010937,62.23069596825125 -64.85565261969359,60.364467135027795 -64.30235399111002,59.71029528682922 -62.31297887466337,57.19634116595589 -59.99412452752074,54.13094846880492 -56.18636377611078,48.98142084680083 -48.24136304259489,38.13092702651502 -33.10274614458365,34.81087317611365 -22.67900106956048,55.64342129680111 -6.572613164230752,53.37337200439605 11.29404597762555,52.75074569225696 21.532878037903647,50.61403237566941 28.278497920540673,50.64965811637832 34.94384964562932,52.145385142187834 44.86160907571392,55.84907696600272 49.251664787407435,57.81962917327614 56.26005909215664,63.16368591139929 57.10668056657448,67.94014276582536 52.21483994786992,74.53722816376735 48.67140571059425,77.34313281092 41.265171985765456,83.99506241587744 37.08300724793486,88.88120768433438 34.033829128187165,94.44464125051931 31.159541875689964,103.80572404638869 20.376680105479505,111.68458266750615 -59.50866744778917,195.03123467112636 -93.73922367822703,91.65944771537069 -87.94447789206396,80.36488819650563 -84.32870684718725,74.78719882907262 -80.96032861487588,71.16152644011663 -76.15515407897415,67.67503483515966" fill="#888888" stroke="#CCCCCC" stroke-width="0.3"/><path d="M -77.44004498952022,75.1286009312632 C -75.15332346018019,70.42026938650517 -66.89487893194455,66.90869867713563 -64.68749343017403,65.02846926706128 C -63.409348220904434,63.93975766191268 -60.832900847821946,61.35972013395757 -59.54492969231741,59.885716509179076 C -56.366963260031746,56.248729748572266 -50.88932325489498,47.49094818708251 -46.65480656480895,44.391170294607655 C -44.04675690123426,42.48200915974835 -37.65189731765355,41.126877913285064 -35.517075677646794,42.296693692793404 C -32.25352461991625,44.085018044120595 -29.885813628847416,52.4132712367643 -26.986782818997728,55.168634837042205 C -25.527369756501688,56.55572379674187 -20.872191257249046,58.737452144036325 -18.045859263581516,58.90208939825998 C -11.595466485507952,59.27783257281467 0.8505131106207413,57.61849362502302 6.848365836522815,57.13957313564794 C 9.063535290890254,56.96269482809083 12.341962606376438,56.530203200097304 13.415517675300663,56.389940679617155 C 15.272230119690413,56.14735678728089 19.58399805509964,55.123746007916054 22.095741436380727,55.147467286353546 C 24.85435620631642,55.17352005493934 30.891487382232356,55.75692572680299 34.04202602912235,56.58474049535495 C 37.42382947717368,57.47332087871268 43.48133801409363,59.60723102975489 45.6527137354268,61.33714205538699 C 47.2598986694223,62.617568519693954 49.73974961918679,66.72366145453756 49.16739877890202,68.63495770537982 C 48.173715569792805,71.95324232806053 42.50977077441697,76.6495039159983 40.2662646592553,79.32453580065865 C 39.34967870025092,80.41742190816632 37.65157743866488,82.26809252827482 37.00604661896079,83.13547748046474 C 35.55219053982974,85.08899053854951 32.90215816667326,88.9432608389306 31.70129860081334,90.83308418958833 C 31.148286602765634,91.70337328651206 30.322965653908835,93.45700930065077 29.931535207423426,94.26881666525459 C 29.257799187646608,95.66611181070026 28.120465151076708,99.43707808982886 26.693849991632742,101.21828466468608 C 25.536450814287495,102.66336045178568 21.49899852761986,105.44934545419045 19.328417834598305,107.5073850720421 C 17.823632251426606,108.9341499725574 12.17261656266432,115.90064851161799 6.808816110681235,120.07231191227581 C -7.303410751692709,131.04801110738285 -33.62579629246225,165.99351618417663 -51.551682899445254,162.63395525565662 C -68.13212587829426,159.5265492103904 -78.45827381870507,119.31324102672708 -83.22578018947068,103.19857402824645 C -86.00074790475944,93.81889476077403 -79.4271597816737,79.22004588374577 -77.44004498952022,75.1286009312632" fill="none" stroke="#FFFFFF" stroke-width="0.15"/><path d="M -70.4214359914631,105.68023725219302 C -72.8938473252633,98.78634572222884 -69.66285989378535,84.21724929231321 -66.8576209365319,78.4646668805352 C -62.883508511028154,70.31512611422403 -50.89688594407246,59.71035988994666 -45.98557185135712,55.570665693056114 C -43.630990797617265,53.586014469316865 -38.31600247268736,52.42822017007723 -36.65912852630083,53.010680141853484 C -33.3368822819208,54.178587608776695 -28.487276926561822,61.0039101009902 -24.735466566091727,63.040959828401654 C -22.62081649137888,64.1891115056961 -16.473639000737194,65.9158698986648 -12.661399488242452,66.04027457725712 C -5.213706774657255,66.28331487292878 10.41613458812708,63.53425922639371 18.527053291455633,64.4527441248322 C 23.79910976561579,65.04975470185151 34.218138318849334,68.00650110414362 34.453699772718714,71.37561435101962 C 34.77363088865887,75.95142309687442 26.29922871467377,87.68671148437653 20.632209284284844,94.56169796969182 C 16.277780352582432,99.84430559517256 4.866207489707921,111.48048035866364 -2.8354519257813315,116.61322419603574 C -13.505797856497292,123.72443872317562 -34.386435049652114,140.2847614723335 -45.32095030995856,138.51594928100698 C -55.881014966662136,136.80770976043308 -67.05640938941315,115.06303212650704 -70.4214359914631,105.68023725219302" fill="none" stroke="#FFFFFF" stroke-width="0.15"/><path d="M -38.245082646483766,114.2216868074753 C -41.59431887650804,114.15736908344398 -47.51245988733364,105.82234691314447 -46.38316603986395,101.98877278061131 C -44.457111532872226,95.45046324107356 -35.380363921169035,80.94468346340838 -27.42576074723229,77.49371502453059 C -19.81971847359099,74.19396376640263 -3.9344102142265225,78.3290552228549 -1.6993774932718242,82.60347591136933 C 0.3248685934552469,86.47477464924849 -8.661346397311407,97.73052747276806 -14.295445938970937,102.60497569509737 C -20.34370012661789,107.83773767510448 -32.93461766411052,114.3236673778968 -38.245082646483766,114.2216868074753" fill="none" stroke="#FFFFFF" stroke-width="0.15"/></g><g fill="none"><path d="M 18.93114152428928,18.144698162594516 L 29.335465791989684,10.838205766659152 L 34.58629924637299,2.645638238495007 L 46.177985781168346,0.7873938509220445 C 50.242320994427274,0.13584689297224495 45.07541012615859,-109.21712689169141 53.98422443149172,-68.10902001069118 C 69.55371699033017,3.733577921619812 84.73991526782534,45.64288302391211 79.39260671433944,49.13334903625902 C 78.38693326183952,49.78980432967615 67.30442197702432,50.177683166980366 70.66615275973172,54.82955875226878 C 80.26792795478728,68.11624543017538 94.67981132826525,79.23179007247323 99.83664424497442,95.1949258569419 C 105.05362826734499,111.3442612493419 105.05362826734499,111.3442612493419 115.50326293077191,143.69142853682177" stroke="#888888" stroke-width="2.3" stroke-linejoin="round" stroke-linecap="butt"/><path d="M 18.93114152428928,18.144698162594516 L 29.335465791989684,10.838205766659152 L 34.58629924637299,2.645638238495007 L 46.177985781168346,0.7873938509220445 C 50.242320994427274,0.13584689297224495 45.07541012615859,-109.21712689169141 53.98422443149172,-68.10902001069118 C 69.55371699033017,3.733577921619812 84.73991526782534,45.64288302391211 79.39260671433944,49.13334903625902 C 78.38693326183952,49.78980432967615 67.30442197702432,50.177683166980366 70.66615275973172,54.82955875226878 C 80.26792795478728,68.11624543017538 94.67981132826525,79.23179007247323 99.83664424497442,95.1949258569419 C 105.05362826734499,111.3442612493419 105.05362826734499,111.3442612493419 115.50326293077191,143.69142853682177" stroke="#FFFFFF" stroke-width="1.7" stroke-linejoin="round" stroke-linecap="round"/></g><g fill="none"><path d="M -33.40217286051031,2.192412569786718 L -49.61649548973295,4.55789168705242 L -59.55708756818831,-2.7402555713625327 C -63.17487928529369,-5.3963525616950925 -72.98813346828501,-2.6117179764047025 -79.59465467535946,4.489172477667936 C -85.62650405059846,10.972388122714737 -90.03016854287392,19.580102023195302 -97.74736702380191,24.00026126257203 C -105.48517327988583,28.432223962489985 -115.16429347013576,30.548207669462172 -120.97209885069245,37.30262911281974 C -124.18815681114326,41.04287339233236 -132.87474419555053,45.94951435907238 -138.40400629347013,57.5757687438926 C -148.38405026000547,78.560581522127 -148.38405026000547,78.560581522127 -168.37410829507775,120.59322453438625" stroke="#888888" stroke-width="2.3" stroke-linejoin="round" stroke-linecap="butt"/><path d="M -33.40217286051031,2.192412569786718 L -49.61649548973295,4.55789168705242 L -59.55708756818831,-2.7402555713625327 C -63.17487928529369,-5.3963525616950925 -72.98813346828501,-2.6117179764047025 -79.59465467535946,4.489172477667936 C -85.62650405059846,10.972388122714737 -90.03016854287392,19.580102023195302 -97.74736702380191,24.00026126257203 C -105.48517327988583,28.432223962489985 -115.16429347013576,30.548207669462172 -120.97209885069245,37.30262911281974 C -124.18815681114326,41.04287339233236 -132.87474419555053,45.94951435907238 -138.40400629347013,57.5757687438926 C -148.38405026000547,78.560581522127 -148.38405026000547,78.560581522127 -168.37410829507775,120.59322453438625" stroke="#FFFFFF" stroke-width="1.7" stroke-linejoin="round" stroke-linecap="round"/></g><g fill-rule="nonzero" fill="#CCCCCC" stroke="#000000" stroke-width="0.3"><path d="M 4.8056342705838695,-6.924255162121998 L 4.49522300918841,-6.1748560849477405 L 3.7458239320141526,-5.864444823552281 L 2.996424854839895,-6.1748560849477405 L 2.686013593444436,-6.924255162121998 L 2.996424854839895,-7.673654239296256 L 3.7458239320141526,-7.984065500691715 L 4.49522300918841,-7.673654239296256 Z"/></g><g fill="#CCCCCC" stroke="#000000" stroke-width="0.3"><polygon points="-8.922991979786223,12.798457952997946 -8.32875436149782,-2.3597814454107997 4.86691043514953,4.55050297669358 9.563705776054604,14.07490658121995"/></g><g fill="#CCCCCC" stroke="#000000" stroke-width="0.3"><polygon points="-11.040601120356895,-3.8015172347101593 -17.942082895981915,-0.7000037383823612 -30.913225277834258,-16.030911828334403 -11.552011557445288,-15.694337323102985"/><polygon points="-10.950372668198932,-15.683878458571016 -2.8102399741502637,-15.542370742495741 -9.470837141418503,-4.50696634332361 -10.450809609944296,-4.066568478636478"/></g><g fill-rule="nonzero" fill="#CCCCCC" stroke="#000000" stroke-width="0.3"><path d="M 17.227406265927247,-1.2944556418543716 L 20.679008594938765,2.3721082219565535 L 24.1184512798461,6.0257551540298655 L 21.68716835351327,8.31449799957084 L 24.69309236891035,11.507627254229995 L 21.424580263314606,14.58451461119828 L 18.96886940870136,16.896253236242188 L 15.96294539330428,13.703123981583033 L 12.52350270839695,10.049477049509722 L 9.07190037938543,6.382913185698798 L 6.821776658712906,3.99265453568671 L 9.277487513326152,1.6809159106428 L 12.545999618921897,-1.3959714463254858 L 14.79612333959442,0.9942872036866031 Z"/></g><g fill="#CCCCCC" stroke="#000000" stroke-width="0.3"><polygon points="21.756575308556386,-27.047177543132264 37.61261362842897,-35.45936838695674 24.948639926936465,-20.863618717509272 22.306940282983277,-23.181076493674095"/><polygon points="5.147921538225841,-14.071611830676812 2.0878766570293323,-16.6122351339083 21.192488501376896,-26.747909480155254 21.743647170143475,-22.876233034982967"/><polygon points="21.743647170143475,-22.876233034982967 24.555006278302816,-20.409939774994506 21.302677624053153,-16.66149746145713 22.216022956112766,-17.441262065086427 14.323345519346084,-6.453652980887609 5.147921538225841,-14.071611830676812"/></g><g fill="#CCCCCC" stroke="#000000" stroke-width="0.3"><polygon points="-13.676849450190758,15.685796134090285 -26.21944079101703,24.287073537641483 -32.59850946105215,3.1046557352051103 -18.588700342833846,1.4543042838544877"/><polygon points="-17.978472102168745,1.3824195740673169 -17.596662427271916,1.337442505087391 -9.329288110880206,-2.3779006422413627 -9.936882608322051,13.121055610153478 -13.163348773810297,15.333655045822274"/></g><g fill="#CCCCCC" stroke="#000000" stroke-width="0.3"><polygon points="-9.475592215041608,19.29598700061313 -8.992816311537958,13.925225159836735 9.38949948047049,15.194466540106472 17.357562441918365,18.564871857556447 1.2508820078934813,29.315361939815787"/><polygon points="0.47445556965555014,29.8335919225904 -11.11835127405077,37.57127291212189 -9.578709484802493,20.4431409773083"/></g><g fill="#CCCCCC" stroke="#000000" stroke-width="0.3"><polygon points="-31.308939870516827,-14.715962337142644 -19.264168568589827,-0.47995471666619993 -33.60862150007562,1.2098176788422796 -44.55300779586195,-11.043629379598446 -36.22225238215196,-15.316700530666362 -34.501928906941544,-15.745932640129125"/></g><g fill-rule="nonzero" fill="#CCCCCC" stroke="#000000" stroke-width="0.6"><path d="M -46.804823378064654,-48.24859000419534 L -39.88719322938084,-47.99216641887083 L -32.914488228264766,-47.73370131198208 L -26.19953669011157,-47.48479064291123 L -16.723192245135813,-47.133520313893555 L -10.576076077982066,-46.905658237848954 L -2.932476474520371,-46.62232432537061 L -3.1472073861544985,-40.82945224500122 L 4.34633343939754,-40.551680730195784 L 11.137116538513588,-40.299959127275486 L 10.873931350793029,-33.19991882888129 L 4.083148251676981,-33.451640431801586 L -3.4103925738750576,-33.72941194660702 L -11.053992177336752,-34.012745859085356 L -17.201108344490503,-34.240607935129965 L -26.677452789466262,-34.59187826414764 L -33.39240432761946,-34.84078893321849 L -40.365109328735535,-35.09925404010724 L -47.28273947741935,-35.35567762543175 L -47.01955428969878,-42.455717923825944 Z"/></g><g fill="#CCCCCC" stroke="#000000" stroke-width="0.3"><polygon points="14.882813377432445,-5.467734283715712 22.59559788805632,-16.204909574654184 31.46211818023891,-19.940417067049626 42.49058052445888,-11.54014910162005 28.9922819631547,9.520454598634515"/></g><g fill="#CCCCCC" stroke="#000000" stroke-width="0.3"><polygon points="-5.833731661838957,40.90501406181541 -5.0587067537007115,34.75894778735868 3.4270522847023077,29.09508248895231 7.3103230454367765,41.916505923718944 -0.5176874337286015,45.37170246526951"/><polygon points="-9.703624151383668,42.57663763896301 -11.03550511845867,38.74819385250446 -5.820391964872223,35.26733865921114 -6.567549080705692,41.19240907065828"/><polygon points="-6.567549080705692,41.19240907065828 -1.223022219932548,45.68302937526963 -7.63790068819972,48.51448520392702 -9.703624151383668,42.57663763896301"/><polygon points="-1.28385730919294,46.771162845676905 7.593853442915373,42.85264030802678 10.419128332407334,52.180871046935806 1.005999873082346,52.50890447566959"/><polygon points="-0.0046242505648868,52.5441232127636 -6.1613847161018285,52.75867709398701 -7.317837762067355,49.434494537432414 -2.1550704163926957,47.15570659698663"/><polygon points="17.345301472210625,43.48627044397178 26.793888954825096,41.9883284062394 28.687125923530957,48.50810645671965 18.435766293892726,50.64743411682985"/><polygon points="17.8475411095119,50.77018919057452 11.221785552892431,52.15289964494428 11.08187205349926,52.15777542084922 8.862801149520731,44.831052808723705 16.752690045471365,43.580220737577754"/><polygon points="24.114225702932796,33.971588196401925 25.888722562855822,38.87118878138425 26.62485692445109,41.406229419331346 18.37614014711502,42.71394865682113 18.18375645779783,36.11943655073876"/><polygon points="18.18375645779783,36.11943655073876 14.640873771547248,32.40042614115406 22.035018768543484,28.230646218924946 24.114225702932796,33.971588196401925"/><polygon points="6.287193966467445,36.327151759777315 3.9841676265373946,28.723232871546326 18.664654714113514,18.92466317345209 21.79918336737127,27.57947613480711"/></g><g fill-rule="nonzero" stroke="#CCCCCC" stroke-width="0.3" stroke-linecap="butt"/><g fill="#CCCCCC" stroke="#000000" stroke-width="0.3"><polygon points="25.679789922370404,14.627374027141922 30.07120093001231,11.543482146304365 35.18663719188167,3.5621669178810036 44.86950598909552,2.009921992691121 36.166141544446184,20.21908575567442"/><polygon points="21.65787239433326,17.45178713457552 25.091830230459593,15.040271867263963 35.889456093309796,20.797966569251606 33.75469921245332,25.264301155707862"/><polygon points="33.35424467442233,26.102131434907413 27.100641507317327,39.1859089674607 19.72161803230297,18.811532122214 20.844529873082365,18.02296127274221"/></g><g fill="#CCCCCC" stroke="#000000" stroke-width="0.3"><polygon points="-12.093566578254368,37.23395556653558 -12.221606719358004,38.65837028760261 -7.747444832360205,51.51918720692855 -21.533968740440198,53.4622727097871 -29.617441171148045,37.306915188767015"/><polygon points="-29.917250061532336,36.707727172273174 -31.480364412081236,33.58373913423351 -25.92368771742093,25.395741301913098 -10.050989269022947,14.51079107211522 -12.039573366476185,36.63329451577744"/></g><g fill-rule="nonzero" stroke="#CCCCCC" stroke-width="0.3" stroke-linecap="butt"/><g fill="#CCCCCC" stroke="#000000" stroke-width="0.3"><polygon points="-39.74431178898406,27.073498912060113 -33.93180909044602,26.841802423606655 -31.498098432060345,30.868749374678288 -32.72807499295345,32.68117179329326 -38.32104857627155,33.90776822581992"/><polygon points="-39.06353345055355,34.07060276891801 -48.285326319201666,36.09303646463965 -50.662013472415644,27.508697530147597 -40.51431551069124,27.10419260248378"/><polygon points="-50.92564434064371,26.556491126623374 -53.269705195733344,18.089994879545333 -40.96210003766543,15.209109524184225 -34.4999452611634,25.901734132176554"/><polygon points="-40.320542766238745,15.05893790881785 -30.726297430618374,12.813178435049572 -27.197356665384,24.53142471140336 -31.110742075467897,30.2979634206993"/><polygon points="-37.477713158643894,13.478897628398988 -44.22447057292657,15.058135374601772 -45.802235970649825,5.012021711543811 -40.34104507858909,4.215298141526217"/><polygon points="-39.7257917441741,4.125539910629554 -33.61121179099345,3.233494555368619 -30.983594083782666,11.958795845927122 -36.878098694245764,13.338543716556527"/><polygon points="-44.81331085626727,15.19596733517705 -53.50751511811698,17.231050961341484 -58.4730091168161,-0.7037804717217071 -49.87782258416763,5.60660190125268 -46.399048853704365,5.099089697303283"/></g><g fill-rule="nonzero" stroke="#CCCCCC" stroke-width="0.3" stroke-linecap="butt"/><g fill-rule="nonzero" stroke="#CCCCCC" stroke-width="0.3" stroke-linecap="butt"/><g stroke="#FFFFFF" stroke-width="0.6" stroke-linecap="square"><polyline points="-30.575694503815456,39.86135402832775 -37.73008544798829,43.441115223985605"/><polyline points="-27.890873607072066,45.227147236457384 -35.0452645512449,48.806908432115236"/><polyline points="-25.206052710328674,50.592940444587 -32.36044365450151,54.17270164024485"/></g><g fill-rule="nonzero" stroke="#CCCCCC" stroke-width="0.3" stroke-linecap="butt"/><g stroke="#FFFFFF" stroke-width="0.6" stroke-linecap="square"><polyline points="-17.59644729154034,54.92708143989332 -16.47995452008771,62.84878857227925"/><polyline points="-11.655166942250895,54.08971186130384 -10.538674170798263,62.011418993689766"/></g><g fill-rule="nonzero" stroke="#CCCCCC" stroke-width="0.3" stroke-linecap="butt"/><g fill-rule="nonzero" stroke="#CCCCCC" stroke-width="0.3" stroke-linecap="butt"/><g fill-rule="nonzero" stroke="#CCCCCC" stroke-width="0.3" stroke-linecap="butt"/><g fill-rule="nonzero" stroke="#CCCCCC" stroke-width="0.3" stroke-linecap="butt"/><g><path fill="none" stroke="#000000" stroke-width="1.9" stroke-linejoin="round" stroke-linecap="round" d="M -39.25886344475809,-16.56882681540415 L -64.14914084627267,-52.89425849642869 L 40.53214803461489,-49.01391930015992 L 42.95132888599495,-40.49918403342282 L -0.489429664543332,-17.452320500706254 L -30.674316586826027,-17.97705327459402 M -35.41725456238158,-17.527333693950162 L -39.25886344475809,-16.56882681540415"/><g stroke="#000000" stroke-width="3.8" stroke-linecap="butt"><line x1="-32.574029560019156" y1="-18.010077803080105" x2="-33.5737700053314" y2="-17.98729530965031" stroke="#FFFFFF" stroke-width="3.8" stroke-linecap="butt"/><line x1="-28.775015867832632" y1="-18.096651278113324" x2="-32.574029560019156" y2="-18.010077803080105"/><line x1="-33.5737700053314" y1="-17.98729530965031" x2="-37.37278369751792" y2="-17.90072183461709"/></g><circle cx="-39.25886344475809" cy="-16.56882681540415" r="2.5" stroke="none" fill="#000000"/><circle cx="-64.14914084627267" cy="-52.89425849642869" r="2.5" stroke="none" fill="#000000"/><circle cx="40.53214803461489" cy="-49.01391930015992" r="2.5" stroke="none" fill="#000000"/><circle cx="42.95132888599495" cy="-40.49918403342282" r="2.5" stroke="none" fill="#000000"/><circle cx="-0.489429664543332" cy="-17.452320500706254" r="2.5" stroke="none" fill="#000000"/><circle cx="-51.70400214551538" cy="-34.73154265591642" r="2.5" stroke="none" fill="#000000"/><circle cx="-11.80849640582889" cy="-50.9540888982943" r="2.5" stroke="none" fill="#000000"/><circle cx="21.23094961072581" cy="-28.975752267064536" r="2.5" stroke="none" fill="#000000"/><circle cx="-16.956359379628694" cy="-17.738580897475636" r="2.5" stroke="none" fill="#000000"/></g></g></svg>